<?xml version="1.0" encoding="utf-8"?>
<!-- Generator: Adobe Illustrator 27.3.1, SVG Export Plug-In . SVG Version: 6.00 Build 0)  -->
<svg version="1.1" id="Layer_1" xmlns="http://www.w3.org/2000/svg" xmlns:xlink="http://www.w3.org/1999/xlink" x="0px" y="0px"
	 viewBox="0 0 1024 1024" style="enable-background:new 0 0 1024 1024;" xml:space="preserve">
<style type="text/css">
	.st0{fill:#9B5DE5;stroke:#2C1156;stroke-width:3;stroke-miterlimit:10;}
	.st1{fill:#004D80;}
	.st2{fill:#2869FF;}
	.st3{fill:#7DFEFC;}
	.st4{fill:#11BAFF;}
	.st5{fill:none;stroke:#191B2B;stroke-width:2;stroke-miterlimit:10;}
	.st6{fill:none;stroke:#191B2B;stroke-width:1.5;stroke-miterlimit:10;}
</style>
<g>
	<path class="st0" d="M725.9,653c0,1.6,0,3.2,0,4.8c0.2-0.8,0.3-1.7,0.4-2.7C726.3,654.3,726.1,653.7,725.9,653z"/>
	<g>
		<path class="st0" d="M614.7,440.7c0,11.4-4.4,16.5-13.1,16.4c-13-0.3-26.1-0.1-39.2,0c-9.5,0.1-13.4-6.3-13.1-18.3
			c0.2-12.2,0.1-24.4,0-36.6c-0.1-14.2-1.3-22.1-5.8-26.3c-10.1-0.3-20.1-0.1-30.2,0c-8.6,0-12.9-5.3-12.9-16.7
			c0.1-17.7,0.1-35.4,0.1-53.1c0-11.4,4.4-16.5,13.1-16.4c13.1,0.3,26.1,0.1,39.2,0c9.5,0,13.4,6.3,13.2,18.3
			c-0.2,12.2-0.1,24.4,0,36.6c0.1,14.2,1.3,22.1,5.8,26.3c10.1,0.3,20.1,0.1,30.2,0c8.6,0,12.9,5.3,12.9,16.7
			C614.7,405.3,614.7,423,614.7,440.7z"/>
	</g>
	<path class="st0" d="M726.5,701.3c0.3,10.1-3.3,14.6-10.7,14.5h-2.6c8.4,0,12.7-5.1,12.7-16.4c0-13.9,0-27.7,0-41.6
		c0-1.6,0-3.2,0-4.8c0.2,0.7,0.3,1.3,0.4,2c0.2,1.2,0.3,2.5,0.3,3.9C726.7,673.1,726.2,687.2,726.5,701.3z"/>
	<path class="st0" d="M987.5,712.9c20.8,0.5,21.3-0.5,21.3-27.1c0-40-0.5-79.9,0.2-119.9c0.3-17.7-4.9-23.4-18.1-22.9
		c-27,0.9-54.1,0.3-81.1,0.3c-26.1,0-52.2-0.1-78.4,0c-17.3,0.1-18.8,2.3-18.9,25.3c-0.1,12.1,0.1,24.2-0.1,36.3
		c-0.2,15.6-6.7,23.2-18.5,23.4c-10.7,0.2-21.5,0.4-32.2,0c-10-0.4-14.6,4.8-14.5,18.1c0.2,44.2,0.3,88.4,0,132.6
		c-0.1,15.8,6.3,19.3,16.8,19.2c51.8-0.3,103.5-0.2,155.3-0.1c20,0,23.9,5.1,24,30.5c0.1,12.1,0.2,24.2,0,36.3
		c-0.2,11.9,3.7,18.2,13.2,18.2c13.1-0.1,26.1-0.2,39.2,0c8.7,0.2,13.1-4.9,13.1-16.2c0-17.6,0-35.1,0.1-52.7
		c0.1-11.3-4.3-16.6-12.9-16.6c-10.7,0.1-21.5,0.2-32.2-0.1c-14-0.4-20.1-7.4-20.2-24.9C943.3,714,939.2,711.7,987.5,712.9z
		 M943.2,690.6c0.1,14.3-6.5,22.2-17.8,22.2c-33.1,0-66.2-0.2-99.3,0.1c-9.8,0.1-13.4-6.3-13.3-17.9c0-13.9-0.3-27.8,0.1-41.7
		c0.5-17.9,5.9-24.4,20.2-24.7c15.4-0.2,30.8-0.1,46.1-0.1c7,0,14-0.2,21,0C951.9,630.1,942.6,615.2,943.2,690.6z"/>
	<path class="st0" d="M415.3,202.5c-0.1,13.1,0,26.1,0,39.2c0,2.4-0.3,4.4-0.8,6.1c0.7-2.5,0.8-5.6,0.4-9.4c-1.1-10.8-1-21.7,0-32.5
		c1.2-13.2-4.3-17.5-16.4-14.7c-6.9,1.6-14,1.3-20.8-0.1c-2.6-0.5-4.8-0.7-6.7-0.6l0.1-0.2h34.7
		C412.2,190.2,415.4,194.1,415.3,202.5z"/>
	<path class="st0" d="M775.5,423.8c0-9-2.7-13.3-10-13.3c-42.4,0.1-84.8,0.1-127.2,0c-7.3,0-10.2,4.4-10.1,13.2
		c0,10.9,0.1,21.8-0.1,32.7c-0.2,11.5-4.7,17.6-13.8,17.6c-6.3,0-12.6,0-18.9,0c-15.9,0-16.1,0.3-16.2,20.3v75
		c0,25.4,0.1,50.9,0,76.3c-79,0-163.7,0-168.5-0.1c-3.3,0-6.6-2.8-6.6-6.4v-318c0-1.8-1.1-3.2-2.5-3.2h-5.7
		c-39.4,0.9-34.3-0.7-34.1-44.6c0.1-13.2,5-18.5,16.5-18.7c8.8-0.2,17.5-0.1,26.3,0c4.7,0,7.8-1.7,9.4-5.5c0.1-0.2,0.2-0.4,0.3-0.7
		c0.1-0.2,0.2-0.5,0.3-0.7c0.7-2.5,0.8-5.6,0.4-9.4c-1.1-10.8-1-21.7,0-32.5c1.2-13.2-4.3-17.5-16.4-14.7c-6.9,1.6-14,1.3-20.8-0.1
		c-2.6-0.5-4.8-0.7-6.7-0.6c-6.8,0.5-9.5,5.2-9.4,13.6c0.2,9.1,0.1,18.2,0,27.3c-0.1,12.5-1.5,18.4-6.9,21c-2.8,1.3-4.5,5-4.5,8.9
		v383h0.1c0,30.9-0.1,56.1-0.1,66.5c0,2.7,2.1,5,4.7,5l60.9,0c0-0.7,0-2.3,0-4.8l0.1,4.8h297.4c8.4,0,12.7-5.1,12.7-16.4
		c0-13.9,0-27.7,0-41.6c0-1.6,0-3.2,0-4.8c0.2,0.7,0.3,1.3,0.4,2c0.1-1.2,0.1-2.4,0.1-3.8c-0.2-10-0.2-20,0-30
		c0.3-14.3,4.2-19.3,15.5-19.5c7.3-0.2,14.7-0.4,22.1,0c7.9,0.4,11.6-3.7,11.5-14.3C775.4,532.9,775.4,478.4,775.5,423.8z
		 M726.2,582.5c-0.1,13.5-4.3,18.9-14.9,19c-23.8,0.3-47.6-0.1-71.5,0.2c-8,0.1-11.5-3.9-11.4-14.5c0.2-31.3-0.1-62.7,0.2-94.1
		c0.1-13.7,4.2-18.6,14.9-18.8c11.9-0.2,23.8,0,35.7,0s23.8,0.3,35.7-0.1c7.9-0.3,11.5,3.5,11.4,14.2
		C726.1,519.8,726.4,551.1,726.2,582.5z"/>
	<rect x="112.3" y="256.2" class="st1" width="35.7" height="57.1"/>
	<rect x="83.2" y="110.9" class="st1" width="34.8" height="52.1"/>
	<rect x="48.4" y="58" class="st1" width="34.8" height="52.9"/>
	<rect x="118" y="110.9" class="st1" width="48.7" height="52.9"/>
	<rect x="198.6" y="256.2" class="st1" width="34.8" height="52.9"/>
	<rect x="241.1" y="158.1" class="st1" width="34.8" height="52.9"/>
	<rect x="233.3" y="256.2" class="st1" width="45.7" height="52.9"/>
	<rect x="233.3" y="309.2" class="st1" width="45.7" height="52.9"/>
	<rect x="258" y="354.3" class="st1" width="60.7" height="52.9"/>
	<rect x="259" y="406.9" class="st1" width="59.7" height="108.4"/>
	<rect x="42.8" y="497.7" class="st2" width="40.4" height="45.2"/>
	<rect x="152.1" y="555.4" class="st3" width="41.9" height="45.2"/>
	<rect x="140.4" y="384.3" class="st4" width="55.7" height="48.3"/>
	<rect x="195.9" y="384.3" class="st4" width="40.1" height="45.2"/>
	<rect x="181.4" y="350.7" class="st4" width="40.1" height="45.2"/>
	<rect x="42.8" y="457" class="st2" width="40.1" height="45.2"/>
	<rect x="80.5" y="453.2" class="st4" width="69.8" height="49"/>
	<rect x="231.3" y="384.3" class="st2" width="27.7" height="46.4"/>
	
		<rect x="121.7" y="223.6" transform="matrix(-1.836970e-16 1 -1 -1.836970e-16 388.1392 75.6447)" class="st2" width="69.1" height="16.5"/>
	
		<rect x="120.7" y="181.6" transform="matrix(-1.836970e-16 1 -1 -1.836970e-16 346.1018 39.8901)" class="st2" width="64.9" height="22.8"/>
	<rect x="42.8" y="542.9" class="st2" width="40.4" height="55.8"/>
	<rect x="113.2" y="542.9" class="st4" width="40.1" height="55.8"/>
	<rect x="190.4" y="542.9" class="st4" width="43" height="55.8"/>
	<rect x="231.7" y="542.9" class="st4" width="40.1" height="55.8"/>
	<rect x="123.2" y="502.2" class="st4" width="148.7" height="58.1"/>
	<rect x="43.9" y="598.7" class="st2" width="39.3" height="48.1"/>
	<rect x="8" y="454.4" class="st1" width="35.9" height="45.2"/>
	<path class="st1" d="M79.7,457H40.5v-48.2c0-1.9,1.5-3.5,3.5-3.5h35.7V457z"/>
	<rect x="8" y="499.5" class="st1" width="35.9" height="45.2"/>
	<rect x="8" y="544.7" class="st1" width="35.9" height="55.8"/>
	<rect x="8" y="600.5" class="st1" width="35.9" height="48.8"/>
	<rect x="42.8" y="646.8" class="st1" width="35.1" height="47.7"/>
	<rect x="77.8" y="646.8" class="st1" width="70.5" height="48.2"/>
	<rect x="140.4" y="311.9" class="st4" width="43" height="95.4"/>
	<rect x="113.2" y="203.3" class="st1" width="34.8" height="52.9"/>
	<rect x="113.2" y="158.9" class="st1" width="34.8" height="54.6"/>
	<rect x="164.5" y="160.6" class="st1" width="36.9" height="52.9"/>
	<rect x="164.5" y="213.5" class="st1" width="36.9" height="52.9"/>
	<rect x="183.4" y="309.2" class="st2" width="49.9" height="45.2"/>
	<rect x="220.3" y="339.5" class="st2" width="38.7" height="45.2"/>
	<rect x="148" y="266.5" class="st2" width="50.6" height="45.4"/>
	<rect x="114.4" y="311.9" class="st2" width="26" height="97.5"/>
	<rect x="77.5" y="362.1" class="st1" width="36.9" height="47.3"/>
	<rect x="77.5" y="309.2" class="st1" width="36.9" height="52.9"/>
	<rect x="79.7" y="409.4" class="st4" width="72.1" height="46.1"/>
	<rect x="194" y="598.8" class="st3" width="66.6" height="48.7"/>
	<rect x="123.7" y="598.8" class="st3" width="86.8" height="48"/>
	<rect x="79.7" y="455.5" class="st4" width="44" height="191.3"/>
	<rect x="113.2" y="515.3" class="st3" width="40.1" height="45.2"/>
	<path class="st5" d="M148.4,695.1"/>
	<polyline class="st6" points="148.4,695.1 41.9,695.1 41.9,649.4 8,649.4 8,454.4 41.9,454.4 41.9,406.9 77.5,406.9 77.5,309.2 
		112.3,309.2 112.3,160.6 83.2,160.6 83.2,110.9 48.4,110.9 48.4,58 83.2,58 83.2,110.9 166.7,110.9 166.7,157.9 201.4,157.9 
		201.4,256.2 279.1,256.2 279.1,354.3 318.7,354.3 318.7,519.3 	"/>
	<rect x="241.1" y="158.1" class="st6" width="34.8" height="52.9"/>
	<path class="st0" d="M182.7,433.5c22.9,0,45.7,0.3,68.6-0.1c9.3-0.2,13.7,4.2,13.2,16.8c-0.5,11.6-0.2,23.2,0,34.7
		c0.2,12,5,18.7,14.5,18.8c9.3,0.1,18.6,0.2,27.9,0.1c8.2-0.1,12,4.7,11.9,15.6c-0.2,36.8-0.2,73.5,0.1,110.3
		c0.1,11.9-4,16.3-12.7,15.7c-7.3-0.4-14.7-0.1-22.1-0.1c-15.3,0.1-19.4,5.3-19.6,24.8c-0.1,10.6-0.2,21.2,0,31.7
		c0.2,9.5-3.1,14-10.4,14c-47.3,0-47.7,0-94.9,0.1c-7.9,0-11.1-4.9-10.9-14.9c0.3-13.1,0.4-26.2,0-39.3c-0.4-12.6,4-16.7,13.3-16.6
		c42.6,0.4,38.4,0.2,81,0.1c18.8,0,21.8-3.9,21.8-27.8c0-29.2,0-58.4,0-87.6c0-20.2-4.2-25.6-20.2-25.7c-42.6-0.1-38.4-0.4-81,0.2
		c-10.8,0.1-16-4-15-18.9c0.7-10.5,0.1-21.1,0.1-31.7c0.1-18.6,1.1-20.1,15.1-20.1C185.4,433.4,160.6,433.5,182.7,433.5z"/>
	<g>
		<path class="st0" d="M968,422.9c-43.8,22.6-88.2,42.5-131.3,60.5l-0.7-0.9l5.3-31.9c49.8-21.7,101.7-44.4,140.2-63.8l0.7,1.4
			L968,422.9z"/>
	</g>
</g>
</svg>
