<?xml version="1.0" encoding="utf-8"?>
<!-- Generator: Adobe Illustrator 27.3.1, SVG Export Plug-In . SVG Version: 6.00 Build 0)  -->
<svg version="1.1" id="Layer_1" xmlns="http://www.w3.org/2000/svg" xmlns:xlink="http://www.w3.org/1999/xlink" x="0px" y="0px"
	 viewBox="0 0 1024 1024" style="enable-background:new 0 0 1024 1024;" xml:space="preserve">
<style type="text/css">
	.st0{fill:#9B5DE5;}
	.st1{fill:#FFFFFF;}
</style>
<g>
	<g>
		<g>
			<path class="st0" d="M496.3,920.2c35.8,6,72.9,2.2,106.1-12.5c9.9-4.4,19-9.6,25.6-15.6c22.8-20.8,45.9-41.7,58.6-69.9
				c31.1-69.1,33.7-140.9,12.4-213.1c-10.1-34.2-27.4-64.9-58.4-85.5c-37.9-25.1-77.6-16-96.1,25.3c-8.7,19.5-23.8,66.4-28.7,78.2
				c-1.1,2.6-2,5.3-2.8,8c-1.1,3.9-2.2,7.8-3.3,11.7c-9.5,34.7,6.9,71.6,39.4,86.9c18.7,8.8,38.8,14.8,57.3,24.1
				c11.2,5.6,21.2,14.2,30.4,22.8c6.9,6.5,20.7,23.9,15.5,33.8c-2,3.7,0,0-1.2,4.1c4.4-3.3,6.5-3.8,8.2-8.2
				c6.1-15.3,10.7-31.1,16.1-46.6c12.2-34.5-14.5-73.4-47.9-87.2c-6.1-2.5-12.4-4.5-18.4-7.1c-13.8-6-28.1-11.4-41.2-18.7
				c-16.3-9.1-27.8-22.9-32-41.9c-1.2-5.6,0.3-9.2,5.1-12.4c19.2-12.5,46.9-11.9,64.9,2.4c37.5,30,59.8,68.9,64.9,116.6
				c4.1,37.9-3.4,73.4-28.3,103.6c-25.6,31-57.9,51.4-97.2,60c-1.8,0.4-3.5,0.7-5.3,1.1c-20.4,3.6-41.2,2.9-61.5-1.4l-11-2.3
				c-46.2-9.8-86.4-38.5-110.4-79.2c-0.8-1.3,3.9,6.5,3,4.9c-2.7-4.8-9.2-20.7-9.3-26.4c-0.9-63.7,19.8-119.9,59.7-169.2
				c10.3-12.7,21.4-24.7,33.2-38.3l55.1-52.2c12.1-11.2,23.7-22.8,35.1-34.6c48.3-49.8,72.4-108.8,68.4-178.7
				c-2.1-36.5-14.6-70-28.3-103.2c-6.3-15.2-13.2-30-19.9-45c-0.9,0.3-1.8,0.5-2.7,0.8c19.3,42.8,20.1,86.8,9.9,131.4
				c-10.4,45.3-36,81.7-67.7,114.2l-53.2,51.2c-16.9,17.6-34.4,34.4-51.2,52.1c-93.4,98.6-90.5,237.1-34.4,331.8
				c12,20.3,25.2,33.4,40,44.5c3.4,2.5,6.8,4.9,10.3,7.2c23.9,15.6,51,25.5,79.1,30.2L496.3,920.2z"/>
			<path class="st0" d="M477.3,545.4"/>
		</g>
		<g>
			<path class="st0" d="M291.6,705.8c0-0.3-1.3-32.7-1.3-33.1C289.3,609,310,552.8,350,503.5c10.3-12.7,21.4-24.7,33.2-38.3
				l55.1-52.2c12.1-11.2,23.7-22.8,35.1-34.6c48.3-49.8,72.4-108.8,68.4-178.7c-2.1-36.5-14.6-70-28.3-103.2
				c-6.3-15.2-13.2-30-19.9-45c-0.9,0.3-1.8,0.5-2.7,0.8c19.3,42.8,20.1,86.8,9.9,131.4c-10.4,45.3-36,81.7-67.7,114.2l-53.2,51.2
				c-16.9,17.6-34.4,34.4-51.2,52.1c-63.5,67-82.4,152.4-70.5,230c3.2,20.7,9.9,40.8,20.4,59C283,698,287.4,704,291.6,705.8z"/>
		</g>
		<path class="st0" d="M640.2,821.1c-25.9-16.3-38.4-26.2-65.2-41.3c-24-13.5-47.4-28.5-69.4-44.9c-19.4-14.5-29.6-35.1-26.9-60.5
			c0.3-2.4,0.3-4.9,0.4-7.3c-6.3,6.9-11.1,14-15.1,21.6c-24.3,45.8-17.5,80.5,24.3,111.1c20.2,14.8,42.9,26,64.6,38.8
			c13.7,8.1,27.6,15.9,41.9,24.1c-33.9,32.8-102.5,44.6-146.5,23.4c-56.8-27.4-118.6-70.8-109.3-135.1c-6.6,13.1,3.7,9.7,4.3,24.2
			c3.2,70,84.8,142.5,163.5,140c59.6-1.9,57.1,18.4,95-33.4"/>
		<g>
			<path class="st1" d="M689.1,285.4c-29.3-3.5-58.4-8.4-86.3-13.6l-0.2-0.6l10.3-11.9c32.5,5.7,66.3,11.7,91.9,14.9l0.1,0.8
				L689.1,285.4z"/>
		</g>
		<g>
			<path class="st1" d="M577.8,427.2c-0.1,15.6,8.5,24.6,20.1,31.9c5.1,3.2,11.4,6.5,13.9,11.5c3.1,6.2,5.9,15.7,3.2,20.8
				c-9.1,17.4-20.7,33.4-33.1,49.6c4.7-18.9-6.5-27.8-19.2-36.4c-23-15.4-24.7-24.7-9-47.8c6.2-9.1,13.1-17.8,19.8-26.6
				C574.3,429.2,575.8,428.6,577.8,427.2z"/>
			<path class="st1" d="M566.3,344.7c-0.4,15.6,7.9,24.8,19.4,32.3c5,3.3,11.3,6.8,13.6,11.8c2.9,6.2,5.6,15.8,2.8,20.9
				c-9.5,17.2-21.5,33-34.2,48.9c5.1-18.8-5.9-28-18.4-36.8c-22.6-15.9-24.2-25.2-8-48c6.4-9,13.5-17.5,20.4-26.1
				C562.8,346.5,564.3,346,566.3,344.7z"/>
		</g>
		<path class="st0" d="M721,477.4c0.1-3.7,0.5-7.3,1.2-10.9c-0.2-6.8,17.4,14,19.1,7.4c-2-0.1,4.2,51.7,2.2,51.4
			c2.2-16.9-3-71.7-6.9-87.9c-12.9-53.8-59.7-108.6-106.7-132c-1.5,1.4-2.6,1.9-2.8,2.6c-9,43.1-20.6,85.9-14.4,130.5
			c6.6,47,41.2,77.5,87.3,77.7c1.5,0,35.3-4.2,36.8-4.2C738.1,497.5,711.9,488.3,721,477.4z M623.8,373.7
			c36.6,16.3,62.7,41.9,84.8,75.1C667.7,453.6,633.1,422.6,623.8,373.7z"/>
		<path class="st0" d="M705.4,385.1c-0.3-0.3-0.6-0.7-0.9-1c7.6,37.7,12.8,75.3,9.5,112.3c-2,22.4-7.4,43.2-26.6,56.9
			c-16,11.5-36.6,16.4-58.4,15.6c0,0-9.8,2.3-58-33.7c-0.9,0.8-0.6,0.6-1.5,1.4c9,12.7,29,21.7,38.7,34
			c32.1,40.8,44.2,79.2,81.3,57.7c23.9-13.8,50.6-40.4,57.9-71.1c5.5-23.3,4-60.5,0.6-84.8c-4.7-32.6-19.6-63-42.2-87
			C705.6,385.4,705.5,385.2,705.4,385.1z"/>
	</g>
</g>
</svg>
